<svg width="528" height="551" viewBox="0 0 528 551" fill="none" xmlns="http://www.w3.org/2000/svg">
<path d="M371.132 230.067L371.132 230.069C370.798 259.854 370.798 286.781 371.09 306.183C371.237 315.885 371.456 323.7 371.743 329.049C371.886 331.725 372.046 333.773 372.22 335.128C372.29 335.67 372.361 336.087 372.429 336.383C372.459 336.349 372.491 336.314 372.524 336.276C372.827 335.93 373.242 335.421 373.766 334.752C374.811 333.418 376.268 331.474 378.081 329.005C381.704 324.068 386.735 317.047 392.694 308.631C404.611 291.801 420.238 269.404 435.739 246.988C451.241 224.571 466.616 202.136 478.033 185.229C483.741 176.775 488.458 169.705 491.706 164.711C493.33 162.213 494.584 160.238 495.41 158.871C495.824 158.186 496.126 157.661 496.313 157.302C496.333 157.263 496.351 157.227 496.368 157.193C496.117 157.105 495.757 156.987 495.295 156.841C494.352 156.542 492.996 156.131 491.284 155.623C487.86 154.607 483.02 153.205 477.233 151.548C465.66 148.235 450.306 143.904 434.929 139.602C419.553 135.3 404.156 131.028 392.5 127.83C386.671 126.231 381.778 124.902 378.291 123.972C376.547 123.507 375.156 123.143 374.176 122.894C373.686 122.77 373.301 122.676 373.027 122.613C373.021 122.612 373.016 122.61 373.01 122.609C373.009 122.622 373.007 122.636 373.005 122.649C372.963 123.007 372.918 123.549 372.872 124.271C372.781 125.713 372.686 127.844 372.589 130.592C372.396 136.086 372.198 144.032 372.01 153.831C371.634 173.429 371.299 200.436 371.132 230.067ZM372.089 336.726C372.085 336.728 372.082 336.73 372.082 336.73C372.082 336.731 372.084 336.729 372.089 336.726ZM496.72 157.328C496.719 157.328 496.719 157.327 496.719 157.327C496.727 157.332 496.729 157.332 496.72 157.328Z" fill="white" stroke="white"/>
<path d="M379.929 339.499C379.888 339.604 379.855 339.695 379.83 339.773C379.946 339.746 380.089 339.707 380.259 339.654C380.863 339.465 381.733 339.128 382.846 338.652C385.069 337.703 388.214 336.222 392.057 334.332C399.737 330.555 410.177 325.156 421.539 319.139C421.541 319.138 421.542 319.138 421.543 319.137L461.668 296.967L445.865 284.161L445.862 284.159C441.357 280.462 437.019 277.149 433.684 274.724C432.016 273.511 430.602 272.522 429.544 271.818C429.014 271.466 428.578 271.187 428.245 270.989C428.035 270.863 427.883 270.78 427.782 270.729C427.764 270.741 427.742 270.756 427.718 270.774C427.583 270.871 427.402 271.028 427.173 271.25C426.716 271.693 426.11 272.355 425.369 273.222C423.89 274.952 421.901 277.461 419.543 280.564C414.827 286.769 408.647 295.328 402.132 304.738C395.616 314.149 389.77 322.94 385.681 329.452C383.635 332.71 382.033 335.39 381.007 337.29C380.492 338.243 380.131 338.985 379.929 339.499ZM427.87 270.68C427.87 270.68 427.869 270.681 427.866 270.682C427.869 270.681 427.87 270.68 427.87 270.68Z" fill="white" stroke="white"/>
<path d="M258.296 545.624L258.301 545.631L258.306 545.639C258.42 545.834 258.638 545.991 259.148 545.989C259.678 545.987 260.439 545.807 261.474 545.389C263.536 544.557 266.51 542.859 270.564 540.175C278.663 534.814 290.963 525.595 308.683 511.751C322.058 501.258 334.315 491.409 343.277 484.031C347.758 480.342 351.412 477.273 353.97 475.051C355.249 473.94 356.25 473.044 356.942 472.39C357.288 472.063 357.551 471.801 357.731 471.606C357.775 471.559 357.812 471.518 357.843 471.482C357.813 471.45 357.777 471.413 357.733 471.372C357.482 471.13 357.073 470.791 356.503 470.355C355.366 469.486 353.64 468.27 351.382 466.743C346.868 463.691 340.257 459.413 332.053 454.219C315.646 443.83 292.886 429.781 267.837 414.542C219.675 385.544 192.91 369.452 178.179 360.764C170.812 356.418 166.463 353.93 163.954 352.606C162.911 352.055 162.204 351.715 161.737 351.526C161.909 351.908 162.152 352.433 162.464 353.094C163.145 354.539 164.148 356.626 165.427 359.264C167.985 364.539 171.647 372.014 176.054 380.968C184.868 398.876 196.661 422.694 208.563 446.642C220.466 470.591 232.477 494.67 241.726 513.1C246.351 522.316 250.285 530.118 253.17 535.785C256.064 541.471 257.884 544.973 258.296 545.624Z" fill="white" stroke="white"/>
<path d="M371.14 352.507L371.138 352.509C345.177 367.111 321.857 380.575 305.201 390.529C296.872 395.507 290.213 399.604 285.724 402.527C283.478 403.99 281.785 405.152 280.699 405.98C280.264 406.312 279.938 406.581 279.716 406.789C279.76 406.798 279.807 406.808 279.856 406.818C280.307 406.907 280.956 407.012 281.796 407.131C283.475 407.369 285.887 407.659 288.931 407.994C295.018 408.664 303.615 409.51 313.882 410.463C334.416 412.368 361.626 414.703 388.79 416.919C415.954 419.136 443.071 421.234 463.421 422.667C473.597 423.384 482.078 423.934 488.027 424.249C491.002 424.407 493.339 424.506 494.937 424.538C495.737 424.554 496.342 424.553 496.747 424.535C496.79 424.533 496.831 424.531 496.868 424.528C496.819 424.266 496.742 423.896 496.637 423.422C496.424 422.457 496.102 421.077 495.686 419.34C494.854 415.867 493.648 410.974 492.19 405.135C489.272 393.456 485.346 377.993 481.383 362.525C477.421 347.058 473.423 331.588 470.363 319.894C468.833 314.047 467.539 309.145 466.6 305.66C466.131 303.917 465.751 302.53 465.476 301.557C465.338 301.071 465.227 300.69 465.145 300.421C465.143 300.416 465.142 300.41 465.14 300.405C465.128 300.41 465.116 300.416 465.103 300.421C464.772 300.563 464.28 300.795 463.632 301.117C462.337 301.759 460.444 302.742 458.016 304.032C453.161 306.612 446.181 310.413 437.601 315.15C420.44 324.623 396.885 337.837 371.14 352.507ZM279.249 406.666C279.245 406.663 279.242 406.662 279.242 406.662C279.241 406.662 279.244 406.663 279.249 406.666ZM496.928 424.9C496.928 424.9 496.928 424.899 496.928 424.899C496.928 424.908 496.928 424.91 496.928 424.9Z" fill="white" stroke="white"/>
<path d="M280.768 414.842C280.656 414.859 280.561 414.876 280.481 414.893C280.562 414.98 280.667 415.084 280.798 415.205C281.264 415.634 281.991 416.218 282.959 416.945C284.893 418.395 287.748 420.379 291.306 422.761C298.418 427.524 308.312 433.866 319.205 440.697C319.206 440.698 319.207 440.699 319.209 440.7L358.471 464.364L361.659 444.275L361.66 444.272C362.609 438.522 363.309 433.109 363.742 429.008C363.958 426.957 364.108 425.237 364.188 423.969C364.229 423.334 364.252 422.817 364.257 422.43C364.261 422.185 364.257 422.012 364.251 421.899C364.231 421.889 364.207 421.878 364.179 421.866C364.028 421.798 363.802 421.719 363.495 421.632C362.883 421.458 362.006 421.264 360.885 421.056C358.647 420.64 355.48 420.172 351.613 419.681C343.882 418.699 333.38 417.627 321.972 416.69C310.564 415.752 300.029 415.085 292.344 414.8C288.5 414.657 285.378 414.61 283.219 414.671C282.137 414.702 281.314 414.759 280.768 414.842ZM364.337 421.951C364.337 421.951 364.336 421.95 364.334 421.948C364.335 421.95 364.337 421.951 364.337 421.951Z" fill="white" stroke="white"/>
<path d="M267.942 163.857L267.944 163.858C293.571 179.04 316.891 192.503 333.84 201.951C342.315 206.676 349.193 210.393 353.968 212.819C356.358 214.033 358.211 214.919 359.472 215.445C359.976 215.656 360.372 215.803 360.663 215.892C360.649 215.849 360.634 215.804 360.618 215.756C360.47 215.321 360.236 214.707 359.919 213.919C359.286 212.347 358.332 210.112 357.1 207.309C354.636 201.702 351.07 193.835 346.762 184.466C338.145 165.73 326.562 140.999 314.9 116.366C303.237 91.7333 291.496 67.2001 282.562 48.8597C278.094 39.689 274.33 32.0688 271.629 26.7592C270.278 24.1036 269.195 22.0302 268.424 20.631C268.038 19.9299 267.734 19.4061 267.516 19.0649C267.493 19.0281 267.471 18.9941 267.45 18.9627C267.248 19.1364 266.966 19.3886 266.608 19.7161C265.878 20.3831 264.844 21.3517 263.548 22.5806C260.956 25.0376 257.322 28.5283 252.994 32.7114C244.338 41.0774 232.91 52.2097 221.496 63.3749C210.083 74.5401 198.684 85.7376 190.086 94.2341C185.788 98.4824 182.19 102.055 179.641 104.61C178.366 105.888 177.355 106.91 176.65 107.635C176.298 107.997 176.023 108.284 175.832 108.489C175.828 108.494 175.824 108.498 175.82 108.502C175.831 108.51 175.842 108.518 175.853 108.526C176.141 108.742 176.588 109.051 177.191 109.452C178.394 110.253 180.192 111.4 182.523 112.858C187.185 115.772 193.966 119.917 202.359 124.979C219.143 135.104 242.365 148.897 267.942 163.857ZM360.79 216.358C360.79 216.363 360.791 216.366 360.791 216.366C360.791 216.366 360.791 216.364 360.79 216.358ZM267.742 18.7255C267.742 18.7257 267.742 18.7259 267.741 18.7261C267.749 18.7213 267.75 18.7201 267.742 18.7255Z" fill="white" stroke="white"/>
<path d="M364.112 211.954C364.182 212.043 364.245 212.116 364.3 212.178C364.334 212.063 364.371 211.92 364.41 211.746C364.549 211.128 364.692 210.207 364.837 209.005C365.126 206.605 365.416 203.141 365.701 198.869C366.27 190.328 366.815 178.588 367.285 165.739C367.285 165.738 367.285 165.736 367.285 165.735L368.147 119.901L349.156 127.184L349.153 127.185C343.698 129.238 338.661 131.338 334.893 133.014C333.008 133.852 331.444 134.582 330.306 135.147C329.736 135.429 329.276 135.668 328.938 135.856C328.724 135.976 328.576 136.066 328.482 136.128C328.483 136.15 328.485 136.176 328.488 136.206C328.506 136.371 328.55 136.606 328.628 136.916C328.783 137.533 329.054 138.389 329.434 139.464C330.193 141.61 331.371 144.586 332.88 148.181C335.895 155.367 340.218 164.999 345.11 175.346C350.002 185.695 354.692 195.152 358.287 201.95C360.085 205.351 361.605 208.078 362.738 209.917C363.306 210.839 363.767 211.523 364.112 211.954ZM328.483 136.027C328.483 136.027 328.483 136.029 328.483 136.031C328.483 136.029 328.484 136.027 328.483 136.027Z" fill="white" stroke="white"/>
<path d="M156.498 220.394L156.5 220.393C182.461 205.79 205.781 192.326 222.437 182.372C230.766 177.395 237.425 173.297 241.914 170.374C244.16 168.912 245.853 167.75 246.939 166.921C247.374 166.589 247.7 166.32 247.922 166.113C247.878 166.103 247.831 166.094 247.782 166.084C247.331 165.994 246.682 165.89 245.842 165.771C244.163 165.533 241.751 165.242 238.707 164.907C232.62 164.237 224.023 163.392 213.756 162.439C193.222 160.533 166.013 158.198 138.849 155.982C111.685 153.766 84.5675 151.667 64.2172 150.234C54.0415 149.518 45.5601 148.968 39.6112 148.652C36.6359 148.494 34.2988 148.396 32.7015 148.364C31.9011 148.348 31.2957 148.349 30.8914 148.367C30.8478 148.369 30.8073 148.371 30.7698 148.373C30.8191 148.635 30.8966 149.005 31.0012 149.479C31.2141 150.444 31.5359 151.824 31.9519 153.561C32.7837 157.035 33.9897 161.927 35.4485 167.767C38.3658 179.446 42.2926 194.909 46.2551 210.376C50.2176 225.843 54.2155 241.314 57.275 253.008C58.8047 258.855 60.0996 263.757 61.038 267.242C61.5073 268.984 61.887 270.371 62.1622 271.344C62.2999 271.831 62.4107 272.211 62.4931 272.48C62.4948 272.486 62.4964 272.491 62.4981 272.496C62.5102 272.491 62.5226 272.486 62.5353 272.48C62.8663 272.338 63.3577 272.106 64.0064 271.785C65.3011 271.143 67.194 270.16 69.6221 268.87C74.4769 266.29 81.4569 262.489 90.0374 257.752C107.198 248.279 130.753 235.065 156.498 220.394ZM248.389 166.236C248.394 166.238 248.396 166.24 248.397 166.239C248.397 166.239 248.394 166.238 248.389 166.236ZM30.7104 148.002C30.7105 148.002 30.7105 148.002 30.7105 148.002C30.7105 147.993 30.7099 147.992 30.7104 148.002Z" fill="white" stroke="white"/>
<path d="M210.037 158.835L210.045 158.835L210 159.333C210.045 158.835 210.045 158.835 210.045 158.835L210.047 158.835L210.052 158.836L210.075 158.838L210.166 158.846L210.521 158.878C210.831 158.906 211.287 158.946 211.866 158.998C213.026 159.1 214.683 159.245 216.671 159.415C220.647 159.756 225.949 160.198 231.251 160.604C236.554 161.009 241.854 161.377 245.828 161.57C247.817 161.667 249.465 161.72 250.614 161.712C251.044 161.709 251.396 161.698 251.664 161.678C251.605 161.619 251.536 161.553 251.458 161.482C250.993 161.052 250.266 160.468 249.297 159.741C247.364 158.291 244.509 156.308 240.951 153.925C233.839 149.162 223.944 142.82 213.052 135.989C213.051 135.988 213.05 135.987 213.048 135.987L173.786 112.323L170.598 132.412L170.597 132.415C169.647 138.165 168.948 143.578 168.515 147.679C168.299 149.73 168.149 151.449 168.069 152.717C168.028 153.352 168.005 153.869 168 154.256C167.996 154.465 167.999 154.621 168.004 154.733C168.066 154.753 168.146 154.775 168.244 154.8C168.566 154.881 169.032 154.972 169.631 155.069C170.826 155.264 172.504 155.48 174.508 155.708C178.514 156.163 183.796 156.662 189.062 157.126C194.326 157.589 199.57 158.016 203.498 158.328C205.462 158.483 207.097 158.61 208.241 158.698C208.813 158.742 209.262 158.776 209.568 158.799L209.917 158.826L210.007 158.832L210.03 158.834L210.035 158.835L210.037 158.835C210.037 158.835 210.037 158.835 210.002 159.308L210.037 158.835ZM252.173 161.608C252.173 161.608 252.171 161.608 252.169 161.609C252.172 161.608 252.173 161.608 252.173 161.608Z" fill="white" stroke="white"/>
<path d="M150.867 338.946L150.867 338.943C151.202 309.159 151.202 282.232 150.909 262.83C150.763 253.128 150.544 245.312 150.257 239.964C150.113 237.287 149.954 235.239 149.779 233.885C149.709 233.342 149.639 232.926 149.57 232.63C149.54 232.663 149.509 232.699 149.475 232.737C149.173 233.082 148.757 233.592 148.234 234.26C147.189 235.595 145.731 237.539 143.919 240.007C140.295 244.944 135.265 251.966 129.306 260.381C117.388 277.212 101.762 299.608 86.2603 322.025C70.7588 344.441 55.3832 366.876 43.9669 383.783C38.2586 392.238 33.5414 399.308 30.2938 404.302C28.6695 406.8 27.4154 408.774 26.5891 410.142C26.1752 410.827 25.8734 411.352 25.6868 411.711C25.6666 411.749 25.6482 411.786 25.6314 411.819C25.8829 411.907 26.2421 412.025 26.7049 412.172C27.6472 412.47 29.0031 412.881 30.7155 413.389C34.1395 414.406 38.9794 415.808 44.7661 417.464C56.3391 420.777 71.6939 425.108 87.0702 429.41C102.446 433.712 117.843 437.985 129.5 441.182C135.329 442.781 140.221 444.111 143.709 445.04C145.452 445.505 146.843 445.87 147.823 446.118C148.314 446.242 148.699 446.336 148.973 446.399C148.978 446.401 148.984 446.402 148.989 446.403C148.991 446.39 148.993 446.377 148.994 446.363C149.037 446.005 149.081 445.464 149.127 444.741C149.219 443.299 149.314 441.168 149.41 438.42C149.604 432.926 149.802 424.981 149.99 415.181C150.366 395.583 150.7 368.577 150.867 338.946ZM149.91 232.287C149.915 232.284 149.917 232.282 149.918 232.282C149.918 232.282 149.915 232.283 149.91 232.287ZM25.2799 411.685C25.2801 411.685 25.2805 411.685 25.2807 411.685C25.2725 411.68 25.271 411.68 25.2799 411.685Z" fill="white" stroke="white"/>
<path d="M158.027 355.827C157.957 355.739 157.895 355.665 157.84 355.604C157.805 355.718 157.768 355.861 157.729 356.035C157.59 356.653 157.447 357.574 157.302 358.777C157.013 361.177 156.723 364.641 156.438 368.913C155.869 377.454 155.324 389.194 154.855 402.042C154.855 402.044 154.854 402.045 154.854 402.047L153.992 447.881L172.984 440.598L172.987 440.597C178.441 438.544 183.479 436.443 187.247 434.768C189.131 433.93 190.695 433.199 191.834 432.635C192.403 432.353 192.863 432.114 193.201 431.925C193.415 431.806 193.563 431.716 193.657 431.654C193.656 431.632 193.654 431.606 193.651 431.576C193.634 431.41 193.589 431.175 193.511 430.865C193.356 430.249 193.085 429.393 192.705 428.318C191.946 426.172 190.768 423.195 189.26 419.601C186.244 412.414 181.922 402.783 177.03 392.435C172.138 382.087 167.447 372.629 163.852 365.831C162.054 362.431 160.534 359.704 159.401 357.865C158.833 356.943 158.372 356.259 158.027 355.827ZM193.656 431.754C193.656 431.754 193.656 431.753 193.656 431.75C193.656 431.753 193.656 431.754 193.656 431.754Z" fill="white" stroke="white"/>
<path d="M145.966 232.841C146.002 232.763 146.034 232.693 146.06 232.63C145.951 232.657 145.822 232.694 145.672 232.742C145.059 232.936 144.178 233.281 143.05 233.765C140.798 234.733 137.613 236.236 133.727 238.141C125.958 241.951 115.416 247.358 103.999 253.276C103.998 253.276 103.997 253.277 103.996 253.277L63.8968 274.697L79.583 287.639L79.5854 287.641C84.0575 291.378 88.366 294.728 91.6798 297.183C93.3369 298.411 94.7429 299.412 95.7945 300.125C96.3208 300.482 96.7548 300.765 97.0854 300.966C97.2894 301.09 97.4382 301.174 97.5383 301.226C97.5519 301.216 97.5671 301.205 97.5837 301.192C97.7096 301.095 97.8795 300.938 98.0955 300.713C98.5251 300.265 99.0926 299.593 99.7883 298.714C101.178 296.958 103.047 294.416 105.292 291.281C108.001 287.499 111.249 282.867 114.849 277.731C117.217 274.354 119.737 270.759 122.358 267.045C125.06 263.214 127.696 259.505 130.171 256.023C133.745 250.992 136.984 246.434 139.605 242.663C141.823 239.472 143.591 236.854 144.741 234.999C145.318 234.068 145.73 233.344 145.966 232.841Z" fill="white" stroke="white"/>
</svg>
