<svg width="41" height="40" viewBox="0 0 41 40" fill="none" xmlns="http://www.w3.org/2000/svg">
<g filter="url(#filter0_d_29_94)">
<path fill-rule="evenodd" clip-rule="evenodd" d="M32.1364 0C34.5464 0 36.5 1.95367 36.5 4.36364V27.6364C36.5 30.0464 34.5464 32 32.1364 32H8.86364C6.45367 32 4.5 30.0464 4.5 27.6364V4.36364C4.5 1.95367 6.45367 0 8.86364 0H32.1364ZM32.1364 2.90909C32.9397 2.90909 33.5909 3.56032 33.5909 4.36364V27.6364C33.5909 28.4397 32.9397 29.0909 32.1364 29.0909H8.86364C8.06032 29.0909 7.40909 28.4397 7.40909 27.6364V4.36364C7.40909 3.56032 8.06032 2.90909 8.86364 2.90909H32.1364Z" fill="white"/>
<path d="M24.9783 26.7509V21.2987C24.9783 20.8167 24.8743 20.3599 24.6923 19.9471C25.1277 19.8561 25.563 19.7519 25.9968 19.6194C27.3304 19.2127 29.2445 17.5264 29.8102 15.8776C30.4371 14.0479 30.4371 12.1919 29.8102 10.3622L29.8097 10.3617C29.6973 10.0329 29.5263 9.70139 29.283 9.34319C29.7305 7.62357 29.4165 6.18529 29.4017 6.11822L29.2091 5.2655L28.3616 5.27586C28.2824 5.27695 26.5251 5.31021 24.8131 6.34176C22.8316 5.94158 20.7938 5.94158 18.8123 6.34176C17.1009 5.31021 15.3435 5.27695 15.2638 5.27586L14.4153 5.2655L14.2226 6.11822C14.2079 6.18529 13.8939 7.62357 14.3414 9.34319C14.0981 9.70139 13.9271 10.0334 13.8142 10.3622C13.1878 12.1919 13.1878 14.0479 13.8147 15.8782C14.3794 17.5264 16.2934 19.2127 17.6276 19.6194C18.0613 19.7519 18.4967 19.8561 18.9321 19.9471C18.7435 20.3711 18.6458 20.8321 18.6455 21.2987V21.9971C18.6128 22.0168 18.5785 22.0326 18.5469 22.056C18.3943 22.1711 17.0328 23.1285 15.6417 22.1051C15.1509 21.5893 14.9103 21.2115 14.6781 20.8462C14.1567 20.0284 13.7065 19.4363 12.2568 18.6871C12.0064 18.5578 11.7164 18.5365 11.4508 18.628C11.1852 18.7196 10.9656 18.9163 10.8404 19.1751C10.7152 19.4339 10.6946 19.7334 10.7832 20.0078C10.8718 20.2823 11.0623 20.5091 11.3127 20.6385C12.3634 21.181 12.5481 21.4699 12.9144 22.0457C13.1862 22.4715 13.5239 23.002 14.2047 23.7053L14.3182 23.8067C15.2111 24.4991 16.1372 24.7461 16.9848 24.7461C17.5515 24.7431 18.1134 24.6385 18.6455 24.437V26.7558L24.9783 26.7509Z" fill="white"/>
</g>
<defs>
<filter id="filter0_d_29_94" x="0.5" y="0" width="40" height="40" filterUnits="userSpaceOnUse" color-interpolation-filters="sRGB">
<feFlood flood-opacity="0" result="BackgroundImageFix"/>
<feColorMatrix in="SourceAlpha" type="matrix" values="0 0 0 0 0 0 0 0 0 0 0 0 0 0 0 0 0 0 127 0" result="hardAlpha"/>
<feOffset dy="4"/>
<feGaussianBlur stdDeviation="2"/>
<feComposite in2="hardAlpha" operator="out"/>
<feColorMatrix type="matrix" values="0 0 0 0 0 0 0 0 0 0 0 0 0 0 0 0 0 0 0.25 0"/>
<feBlend mode="normal" in2="BackgroundImageFix" result="effect1_dropShadow_29_94"/>
<feBlend mode="normal" in="SourceGraphic" in2="effect1_dropShadow_29_94" result="shape"/>
</filter>
</defs>
</svg>
