<svg width="41" height="40" viewBox="0 0 41 40" fill="none" xmlns="http://www.w3.org/2000/svg">
<g filter="url(#filter0_d_29_32)">
<path d="M12.3336 9.31395C13.5262 9.31395 14.493 8.33712 14.493 7.13214C14.493 5.92715 13.5262 4.95032 12.3336 4.95032C11.1411 4.95032 10.1743 5.92715 10.1743 7.13214C10.1743 8.33712 11.1411 9.31395 12.3336 9.31395Z" fill="white"/>
<path d="M10.1743 12.2231C10.1743 11.4198 10.8188 10.7686 11.6139 10.7686H13.0534C13.8485 10.7686 14.493 11.4198 14.493 12.2231V23.8595C14.493 24.6628 13.8485 25.314 13.0534 25.314H11.6139C10.8188 25.314 10.1743 24.6628 10.1743 23.8595V12.2231Z" fill="white"/>
<path d="M18.8116 25.314H20.2512C21.0462 25.314 21.6907 24.6628 21.6907 23.8595V17.314C21.6907 15.1322 26.0094 13.6776 26.0094 16.5867V23.86C26.0094 24.6634 26.6539 25.314 27.4489 25.314H28.8885C29.6835 25.314 30.328 24.6628 30.328 23.8595V15.1322C30.328 12.2231 28.1687 10.7686 25.2896 10.7686C22.4105 10.7686 21.6907 12.9504 21.6907 12.9504V12.2231C21.6907 11.4198 21.0462 10.7686 20.2512 10.7686H18.8116C18.0166 10.7686 17.3721 11.4198 17.3721 12.2231V23.8595C17.3721 24.6628 18.0166 25.314 18.8116 25.314Z" fill="white"/>
<path fill-rule="evenodd" clip-rule="evenodd" d="M32.1364 0C34.5464 0 36.5 1.95367 36.5 4.36364V27.6364C36.5 30.0464 34.5464 32 32.1364 32H8.86364C6.45367 32 4.5 30.0464 4.5 27.6364V4.36364C4.5 1.95367 6.45367 0 8.86364 0H32.1364ZM32.1364 2.90909C32.9397 2.90909 33.5909 3.56032 33.5909 4.36364V27.6364C33.5909 28.4397 32.9397 29.0909 32.1364 29.0909H8.86364C8.06032 29.0909 7.40909 28.4397 7.40909 27.6364V4.36364C7.40909 3.56032 8.06032 2.90909 8.86364 2.90909H32.1364Z" fill="white"/>
</g>
<defs>
<filter id="filter0_d_29_32" x="0.5" y="0" width="40" height="40" filterUnits="userSpaceOnUse" color-interpolation-filters="sRGB">
<feFlood flood-opacity="0" result="BackgroundImageFix"/>
<feColorMatrix in="SourceAlpha" type="matrix" values="0 0 0 0 0 0 0 0 0 0 0 0 0 0 0 0 0 0 127 0" result="hardAlpha"/>
<feOffset dy="4"/>
<feGaussianBlur stdDeviation="2"/>
<feComposite in2="hardAlpha" operator="out"/>
<feColorMatrix type="matrix" values="0 0 0 0 0 0 0 0 0 0 0 0 0 0 0 0 0 0 0.25 0"/>
<feBlend mode="normal" in2="BackgroundImageFix" result="effect1_dropShadow_29_32"/>
<feBlend mode="normal" in="SourceGraphic" in2="effect1_dropShadow_29_32" result="shape"/>
</filter>
</defs>
</svg>
